
mtllib Scene.mtl

v -5.961315 -0.003941 5.024590
v -5.961315 -1.229614 5.024590
v 5.987370 -0.003941 5.024590
v 5.987370 -1.229614 5.024590
v 5.987370 -0.003941 -5.924095
v 5.987370 -1.229614 -5.924095
v -5.961315 -0.003941 -5.924095
v -5.961315 -1.229614 -5.924095
# 8 vertices

vt 0.000000 -9.136639
vt 10.136639 -9.136639
vt 10.136639 1.000000
vt 0.000000 1.000000
# 4 texture coordinates

vn 0.000000 0.000000 1.000000
vn 1.000000 0.000000 0.000000
vn 0.000000 0.000000 -1.000000
vn -1.000000 0.000000 0.000000
vn 0.000000 1.000000 0.000000
vn -0.000000 -1.000000 -0.000000
# 6 normals

g Box01
usemtl Grass
s 1
f 1/1/1 2/1/1 3/2/1
f 2/1/1 4/2/1 3/2/1
s 2
f 3/2/2 4/2/2 5/3/2
f 4/2/2 6/3/2 5/3/2
s 1
f 5/3/3 6/3/3 7/4/3
f 6/3/3 8/4/3 7/4/3
s 2
f 7/4/4 8/4/4 1/1/4
f 8/4/4 2/1/4 1/1/4
s 3
f 7/4/5 1/1/5 5/3/5
f 1/1/5 3/2/5 5/3/5
f 2/1/6 8/4/6 4/2/6
f 8/4/6 6/3/6 4/2/6
# 12 triangles in group

# 12 triangles total

